<svg id="Layer_1" data-name="Layer 1" xmlns="http://www.w3.org/2000/svg" viewBox="0 0 568.04 231.12"><defs><style>.cls-1{fill:#2e3192;}</style></defs><path class="cls-1" d="M146.56,74.07c-1.26,1.65-2.5,3.3-3.77,4.94-4.93,6.39-9.95,12.7-15.36,18.69-.5.56-1,1.1-1.53,1.67a3.76,3.76,0,0,0-.63,5c1,1.92,2,3.82,3,5.74,1.24,2.43,2.47,4.87,3.67,7.32.42.86.75,1.78,1.16,2.76l-4,.59c-12.75,1.93-25,5.51-36.34,11.72a90.11,90.11,0,0,0-31.39,28.7c-.18.26-.36.51-.55.76,0,0-.11.05-.23.1-.15-.24-.32-.49-.47-.76-2.78-5.13-5.54-10.27-8.32-15.4-.52-1-1.08-1.91-1.66-2.84a4,4,0,0,0-3.73-1.94,30.34,30.34,0,0,0-7.85,1.41c0,.3,0,.64.06,1,.55,4,1.08,8.08,1.66,12.11a94.82,94.82,0,0,0,5.43,22.14c.32.81.66,1.62,1,2.54l-14.05,2.34c0-.65,0-1.2,0-1.75.21-3.07.44-6.13.66-9.19a12.17,12.17,0,0,0-.36-3.45c-.4-1.8-.76-3.62-1.07-5.44a3.87,3.87,0,0,1,.68-3.11,10.6,10.6,0,0,0,1.82-7.7c-.32-2.86-.84-5.71-1.28-8.56a3.64,3.64,0,0,0-.19-.55l-19.32,1.38.79-1L44.78,107.4q9.34-11,18.68-22.06a9,9,0,0,1,5.12-3.29,28.82,28.82,0,0,1,3.08-.4c3.59-.35,7.18-.66,10.77-1,4.12-.4,8.24-.84,12.36-1.25l12.08-1.19L119,77c2.93-.29,5.87-.54,8.81-.81l9.27-.88,2.72-.24a14.45,14.45,0,0,0,4.29-1C144.92,74.07,145.74,74.07,146.56,74.07Z" transform="translate(-13.64 -74.05)"/><path class="cls-1" d="M309,305.17c-.56-.19-1.12-.36-1.67-.57a4.2,4.2,0,0,1-2.88-3.08,12.77,12.77,0,0,1-.14-1.35h2.85a3,3,0,0,0,1.37,1.87,4.56,4.56,0,0,0,2.82.5,4.21,4.21,0,0,0,3.81-2.9,34.88,34.88,0,0,0,.84-3.59l-1,.79a6.88,6.88,0,0,1-5.12,1.44,5.14,5.14,0,0,1-4.72-5.12,8.77,8.77,0,0,1,3.69-8,7,7,0,0,1,5.87-1.28,4.41,4.41,0,0,1,2.42,1.35c.16.18.35.32.61.56.14-.67.26-1.24.39-1.84h2.89c-.31,1.84-.61,3.62-.93,5.4-.54,3.08-1.05,6.17-1.66,9.23a7.63,7.63,0,0,1-5.71,6.22c-.36.1-.71.24-1.06.36Zm2.69-9.35a9.67,9.67,0,0,0,1.2-.19,5.84,5.84,0,0,0,4-6.17,3.36,3.36,0,0,0-3.61-3.2,4.92,4.92,0,0,0-3.65,1.69,6.07,6.07,0,0,0-1.57,3.93A3.56,3.56,0,0,0,311.65,295.82Z" transform="translate(-13.64 -74.05)"/><path class="cls-1" d="M94.35,237.44c.39.36.66.62.94.86a41.67,41.67,0,0,0,17.88,9,52.77,52.77,0,0,0,15.6,1.39,62.08,62.08,0,0,0,30.54-10.17A65.15,65.15,0,0,0,177,222.36a56.31,56.31,0,0,0,9.77-22.53A77.81,77.81,0,0,0,188,189.19c0-.16,0-.31.05-.46a4.78,4.78,0,0,1,3.5,2.8,11.29,11.29,0,0,1,.71,2.62,71.45,71.45,0,0,1,.81,12.57,54.93,54.93,0,0,1-12.92,34.49,75.31,75.31,0,0,1-14.89,13.35,81.77,81.77,0,0,1-23,11.49,65.56,65.56,0,0,1-23,2.86,72.68,72.68,0,0,1-23.55-5.43,63.38,63.38,0,0,1-18.28-11.06,56.48,56.48,0,0,1-16.08-24.19,81,81,0,0,1-4.27-26.06A73,73,0,0,1,69,162.59c10.73-16.51,25.69-27.43,44.5-33.12a75.48,75.48,0,0,1,13.72-2.76,56.94,56.94,0,0,1,25.8,2.67,49.71,49.71,0,0,1,21.71,15.53,44.66,44.66,0,0,1,7.3,11.8,29.46,29.46,0,0,1,2.16,13.63,25.86,25.86,0,0,1-6.09,14.53,35.85,35.85,0,0,1-9.36,7.8q-20.82,12.5-41.64,25-14.31,8.63-28.6,17.29c-1.07.65-2.17,1.26-3.25,1.9C95,237,94.73,237.21,94.35,237.44ZM83.08,221.35c.52-.29.84-.46,1.16-.65q14.39-8.41,28.76-16.84,16.65-9.77,33.28-19.55a18.6,18.6,0,0,0,5.22-4.41,19,19,0,0,0,4.07-15.08,15.93,15.93,0,0,0-4.52-9.32A19.49,19.49,0,0,0,138.48,150a44.47,44.47,0,0,0-16.29,1.77,59.93,59.93,0,0,0-16.76,8.17,61.06,61.06,0,0,0-16.52,16,48.91,48.91,0,0,0-8.65,24.55,49.69,49.69,0,0,0,1.39,15.69C82.07,217.87,82.57,219.52,83.08,221.35Z" transform="translate(-13.64 -74.05)"/><path class="cls-1" d="M207.07,268.45V145.27a23.77,23.77,0,0,1,.82-6.51c1.74-6.11,5.78-9.82,11.9-11.35a24.51,24.51,0,0,1,6-.66H259.2c2.42,0,4.83,0,7.25.06a62.23,62.23,0,0,1,21.5,4.62,65.5,65.5,0,0,1,29,23.32,66.83,66.83,0,0,1,11.22,25.48c.55,2.7.9,5.44,1.21,8.18a89.77,89.77,0,0,1,.4,14,69.6,69.6,0,0,1-14.23,40A67.31,67.31,0,0,1,296,260.14,62.26,62.26,0,0,1,275,267.68a83.63,83.63,0,0,1-13.5,1.1c-7.44.08-14.88.17-22.32.16-9.83,0-19.65-.09-29.48-.17A21.15,21.15,0,0,1,207.07,268.45Zm24.45-22.8H260.7a57.23,57.23,0,0,0,11.24-.91,40.94,40.94,0,0,0,22.27-12.14,46.37,46.37,0,0,0,11.37-22,58.92,58.92,0,0,0,1.37-15,61.72,61.72,0,0,0-.76-8.8,45.12,45.12,0,0,0-15.83-27.56A35.75,35.75,0,0,0,271.7,151a144.41,144.41,0,0,0-16-1.13c-7.88-.14-15.76-.18-23.64-.25a4.91,4.91,0,0,0-.59.07C231.52,181.61,231.52,213.54,231.52,245.65Z" transform="translate(-13.64 -74.05)"/><path class="cls-1" d="M363.52,127.25v1.39q0,44.69,0,89.37A33.18,33.18,0,0,0,365,228.4c2.83,8.67,8.79,14,17.57,16.16a42.21,42.21,0,0,0,12.63.84,47.88,47.88,0,0,0,8.84-1.23,26.92,26.92,0,0,0,7.34-2.86,22.39,22.39,0,0,0,10.47-14,34.46,34.46,0,0,0,1.16-9.21c0-3.74,0-7.47,0-11.21.06-10.67.15-21.34.18-32,0-5.77-.05-11.55-.12-17.32-.05-3.67-.18-7.34-.28-11a21.75,21.75,0,0,1,1.3-8.5c2.37-6.18,6.88-9.78,13.35-11a23.49,23.49,0,0,1,8.15,0,5.69,5.69,0,0,1,.62.19c.07,1,.16,2,.22,3,0,.56,0,1.13,0,1.69q0,34.32,0,68.65c0,7.13.09,14.25,0,21.38a44.36,44.36,0,0,1-9.6,27.95,47,47,0,0,1-17.63,13.64,54.84,54.84,0,0,1-16.62,4.57,85,85,0,0,1-13.44.53,57.2,57.2,0,0,1-33-11.7,38.9,38.9,0,0,1-15.35-26.18,60,60,0,0,1-.56-6.56c-.2-5.93-.32-11.86-.44-17.79-.08-3.73-.13-7.47-.15-11.2q-.09-13.65-.12-27.3c0-3.95,0-7.91,0-11.86s.08-8.1.13-12.14a19.09,19.09,0,0,1,1.39-7.16,15.15,15.15,0,0,1,10.6-9.09,25,25,0,0,1,9.15-.66C361.66,127,362.5,127.14,363.52,127.25Z" transform="translate(-13.64 -74.05)"/><path class="cls-1" d="M457,234.55a3.07,3.07,0,0,1,.32-.27c3.34-1.87,6.66-3.77,10-5.6a11.52,11.52,0,0,1,5.69-1.44,9.75,9.75,0,0,1,8.08,4.1c.3.4.57.83.86,1.24a30.49,30.49,0,0,0,16.37,11.58,44.52,44.52,0,0,0,16.75,1.76,49.81,49.81,0,0,0,10.08-1.74,18.22,18.22,0,0,0,8.22-4.74,14.27,14.27,0,0,0,4.08-9.27,17.62,17.62,0,0,0-.77-6.69,12.61,12.61,0,0,0-7.38-8c-4.12-1.77-8.28-3.44-12.45-5.09-7.64-3-15.45-5.59-23.2-8.32a100.17,100.17,0,0,1-12-4.91,36.5,36.5,0,0,1-11.78-9.07,29.74,29.74,0,0,1-6.56-14.19,42.24,42.24,0,0,1,1.27-20.55,34.05,34.05,0,0,1,12.77-17.27,50.52,50.52,0,0,1,19.51-8.54,55.51,55.51,0,0,1,15.26-1.09c12.58.85,23.76,5.2,33.17,13.74A50.21,50.21,0,0,1,556,153.94c.54,1,.89,2.13,1.32,3.17a1.73,1.73,0,0,1-.29.26c-3.73,2.07-7.35,4.34-11.25,6.09a10.59,10.59,0,0,1-12-2.07,18.69,18.69,0,0,1-1.27-1.39,34.32,34.32,0,0,0-6-5.56,28.57,28.57,0,0,0-14.79-5.27A39.29,39.29,0,0,0,499,150.34a17.2,17.2,0,0,0-8.93,5.48A15.16,15.16,0,0,0,488.36,173a12.24,12.24,0,0,0,6,5.45c4.29,1.86,8.58,3.69,12.92,5.44,7,2.83,14.22,5.11,21.37,7.56a111.63,111.63,0,0,1,12.08,4.74A40.66,40.66,0,0,1,553.14,205,28.88,28.88,0,0,1,561,221.9a65.42,65.42,0,0,1,.48,7.79,37.28,37.28,0,0,1-3.19,15.46,33,33,0,0,1-12.73,14.27,58.12,58.12,0,0,1-11.83,5.51,72.75,72.75,0,0,1-16.26,3.84A61.69,61.69,0,0,1,481.4,262a79.66,79.66,0,0,1-9.44-5.84,37.5,37.5,0,0,1-9.62-10.23,45.13,45.13,0,0,1-5-10.4C457.23,235.21,457.14,234.88,457,234.55Z" transform="translate(-13.64 -74.05)"/><path class="cls-1" d="M512.46,282.39a11.74,11.74,0,0,1,2.72-3.5,19.07,19.07,0,0,1,12.28-5.28,18.74,18.74,0,0,1,5.66.78c5.26,1.36,10.36,3.21,15.46,5.08,4.5,1.65,9,3.41,13.47,5.07a23.74,23.74,0,0,0,3.79,1.08,6.31,6.31,0,0,0,5.83-1.93,7.74,7.74,0,0,0,1.83-2.79c-.49.2-.82.35-1.16.48a25.75,25.75,0,0,1-3.35,1.2,7.47,7.47,0,0,1-8.87-6.47,8.35,8.35,0,0,1,.54-4.25,13.41,13.41,0,0,1,.7-1.54,18.71,18.71,0,0,0,2.16-7.06c.27-2.08.52-4.17.79-6.26,0-.31.11-.61.18-1a5.07,5.07,0,0,1,.63.22c3.42,1.71,4.8,4.65,3.93,8.54-.29,1.28-.78,2.51-1.12,3.79-.4,1.48-.8,3-1.08,4.47A4.69,4.69,0,0,0,568,276.7a1.16,1.16,0,0,0,1.07.45,6,6,0,0,0,4-1.83,19.53,19.53,0,0,0,1.72-2.11c.68-.9,1.32-1.84,2-2.75a3.76,3.76,0,0,1,2.78-1.57c.67-.07,1.35-.07,2.12-.1-.12.2-.14.3-.2.35a12,12,0,0,0-3.85,7.55c-.32,1.95-.57,3.91-1,5.85a13.06,13.06,0,0,1-2,4.92,8.7,8.7,0,0,1-6.94,3.77,23.49,23.49,0,0,1-8.15-1.19,51,51,0,0,1-10.75-4.46A52.51,52.51,0,0,0,536,280.32a35.26,35.26,0,0,0-22.59,1.73C513,282.16,512.75,282.27,512.46,282.39Z" transform="translate(-13.64 -74.05)"/><path class="cls-1" d="M195.09,289.11c-.27,1.33-.5,2.49-.75,3.74H83.83a5.19,5.19,0,0,1-.56,0c-.76,0-.94-.22-1-1s0-1.32,0-2a.71.71,0,0,1,.76-.77h112Z" transform="translate(-13.64 -74.05)"/><path class="cls-1" d="M343.43,298.05h-2.81c.16-.93.3-1.79.45-2.64.3-1.73.61-3.45.92-5.18,0,0,0-.06,0-.09.23-1.3.21-2.57-1-3.38a3.74,3.74,0,0,0-3.86-.06,4.08,4.08,0,0,0-2.2,3.11c-.46,2.43-.88,4.86-1.33,7.3-.06.31-.13.61-.2.95h-2.86c.83-4.75,1.65-9.42,2.48-14.1h2.86c-.05.47-.1.89-.16,1.46l.84-.55A6.3,6.3,0,0,1,342,284a3.9,3.9,0,0,1,2.56,1.92c.09.16.2.31.34.53.27-.29.49-.55.73-.78a6.44,6.44,0,0,1,6.51-1.64,3.9,3.9,0,0,1,3,3.5,6.24,6.24,0,0,1,0,1.78c-.48,2.9-1,5.79-1.52,8.76h-2.87c.27-1.54.52-3,.78-4.48.2-1.14.42-2.28.62-3.41,0-.12,0-.25,0-.37.26-2.45-1.07-3.77-3.51-3.49A4.21,4.21,0,0,0,344.9,290c-.44,2.43-.86,4.87-1.3,7.3C343.57,297.54,343.5,297.77,343.43,298.05Z" transform="translate(-13.64 -74.05)"/><path class="cls-1" d="M388.84,298.07H386c.08-.63.15-1.2.23-1.9a5.75,5.75,0,0,0-.55.4,6.9,6.9,0,0,1-6.14,1.6,5.18,5.18,0,0,1-4.07-4.81,9.24,9.24,0,0,1,2.28-6.95,7.45,7.45,0,0,1,7.91-2.31,6,6,0,0,1,2.36,1.67,22.13,22.13,0,0,0,.68-3.33c.21-1.07.4-2.14.6-3.25h2.91C391.06,285.54,390,291.8,388.84,298.07ZM382,295.78a4.87,4.87,0,0,0,3.79-1.76,6,6,0,0,0,1.52-4c0-2.4-1.42-3.84-3.7-3.8a5,5,0,0,0-1.47.27,5.79,5.79,0,0,0-3.58,6.51A3.33,3.33,0,0,0,382,295.78Z" transform="translate(-13.64 -74.05)"/><path class="cls-1" d="M477.06,279.18H480c-.38,2.2-.75,4.33-1.15,6.68.44-.32.68-.5.93-.67a7.13,7.13,0,0,1,5.59-1.36,5,5,0,0,1,4.25,4.41c.53,3.73-1.65,8.57-6.06,9.78-2.32.64-4.47.41-6.2-1.51a3,3,0,0,0-.31-.26c-.15.63-.27,1.19-.43,1.86h-2.83C474.81,291.74,476,285.52,477.06,279.18ZM486.65,290a9.61,9.61,0,0,0-.16-1.2,3.4,3.4,0,0,0-4-2.48c-3.72.47-5.4,4.66-4.5,7.25a3.13,3.13,0,0,0,2.49,2.17,4.38,4.38,0,0,0,2.4-.17A6.05,6.05,0,0,0,486.65,290Z" transform="translate(-13.64 -74.05)"/><path class="cls-1" d="M248.82,285.84c.13-.68.25-1.26.37-1.87h2.91c-.84,4.74-1.66,9.41-2.48,14.08h-2.87l.22-1.78c-.83.51-1.6,1.06-2.43,1.47a6.3,6.3,0,0,1-4.59.36,4.86,4.86,0,0,1-3.62-4.06,8.87,8.87,0,0,1,5.12-9.72,7.07,7.07,0,0,1,3.77-.53C246.64,284,247.28,284.35,248.82,285.84Zm-6.07,9.94a5,5,0,0,0,3.8-1.76,6.08,6.08,0,0,0,1.51-4c0-2.41-1.43-3.84-3.7-3.79a5,5,0,0,0-1.47.27,5.78,5.78,0,0,0-3.57,6.52A3.31,3.31,0,0,0,242.75,295.78Z" transform="translate(-13.64 -74.05)"/><path class="cls-1" d="M371.12,298.07h-2.85c.08-.63.15-1.2.24-1.9a5.75,5.75,0,0,0-.55.4,7.13,7.13,0,0,1-5.59,1.71,5.23,5.23,0,0,1-4.62-4.93,9.05,9.05,0,0,1,2.3-7,7.46,7.46,0,0,1,7.1-2.55,4.72,4.72,0,0,1,2.67,1.48l.51.54c.15-.7.27-1.3.4-1.92h2.88C372.79,288.7,372,293.38,371.12,298.07Zm-6.88-2.29A4.86,4.86,0,0,0,368.1,294a5.88,5.88,0,0,0,1.47-3.88c0-2.34-1.34-3.86-3.67-3.82a5.2,5.2,0,0,0-1.65.32,5.8,5.8,0,0,0-3.41,6.52A3.31,3.31,0,0,0,364.24,295.78Z" transform="translate(-13.64 -74.05)"/><path class="cls-1" d="M472,284c-.83,4.74-1.66,9.41-2.49,14.15h-2.24a3.33,3.33,0,0,1-.61-.1c.07-.61.14-1.18.21-1.75-.83.51-1.59,1.06-2.42,1.47a6.3,6.3,0,0,1-4.59.36A4.86,4.86,0,0,1,456.2,294a8.87,8.87,0,0,1,5.12-9.72,7.07,7.07,0,0,1,3.77-.53c1.42.2,2.07.59,3.59,2.06.13-.65.25-1.24.38-1.87Zm-9.33,11.82a4.85,4.85,0,0,0,3.78-1.78,5.89,5.89,0,0,0,1.51-4c0-2.43-1.46-3.83-3.71-3.78a5,5,0,0,0-1.47.27,5.79,5.79,0,0,0-3.56,6.52A3.31,3.31,0,0,0,462.63,295.78Z" transform="translate(-13.64 -74.05)"/><path class="cls-1" d="M233.77,292h-10.6c-.45.4-.25.8-.18,1.19a3,3,0,0,0,3,2.71,4.08,4.08,0,0,0,3.73-1.57,1,1,0,0,1,.87-.43c.78,0,1.56,0,2.52,0a10.59,10.59,0,0,1-.64,1.12,7.92,7.92,0,0,1-9.63,2.64,4.89,4.89,0,0,1-2.8-4.07,9,9,0,0,1,2.48-7.43,8.09,8.09,0,0,1,8.59-1.95,4.51,4.51,0,0,1,2.52,2.28A6.75,6.75,0,0,1,233.77,292Zm-10.31-2.1h7.71a2.75,2.75,0,0,0-1.24-3.18,4.08,4.08,0,0,0-3.34-.35A4.58,4.58,0,0,0,223.46,289.88Z" transform="translate(-13.64 -74.05)"/><path class="cls-1" d="M407,292H396.21a2.34,2.34,0,0,0,.14,2,3,3,0,0,0,2.79,1.89,4,4,0,0,0,3.73-1.57.94.94,0,0,1,.87-.42c.78,0,1.56,0,2.39,0a2.84,2.84,0,0,1-.91,1.65,7.9,7.9,0,0,1-7.82,2.61,5.16,5.16,0,0,1-4.25-5.23,9.22,9.22,0,0,1,2.34-6.56,8.11,8.11,0,0,1,8.95-2.09c2.43,1.05,3.11,3.38,3,5.49A17.65,17.65,0,0,1,407,292Zm-2.65-2.08a2.91,2.91,0,0,0-2.24-3.62,4.63,4.63,0,0,0-5.33,2.8c-.1.24-.16.5-.26.82Z" transform="translate(-13.64 -74.05)"/><path class="cls-1" d="M512.35,292H501.63a3.07,3.07,0,0,0,2.91,3.88,4.25,4.25,0,0,0,4-1.95h3a1.65,1.65,0,0,1-.08.42,7.9,7.9,0,0,1-9.92,3.36,5,5,0,0,1-3-4.63,9,9,0,0,1,2.42-6.8,8.12,8.12,0,0,1,9-2c.05,0,.09.09.18.18-.13.37-.27.77-.45,1.31l1.27-.1c.77-.09.8-.08,1.18.6a6.38,6.38,0,0,1,.58,4.37C512.62,291.08,512.49,291.47,512.35,292Zm-2.6-2.1c.25-2-.57-3.2-2.28-3.63a4.07,4.07,0,0,0-2.32.08,4.79,4.79,0,0,0-3.24,3.54Z" transform="translate(-13.64 -74.05)"/><path class="cls-1" d="M430.4,298.39a18.91,18.91,0,0,1-2-.34,5.48,5.48,0,0,1-4.07-5.45,8.45,8.45,0,0,1,7.64-8.83,6,6,0,0,1,6.39,3,6.94,6.94,0,0,1,.48,4.84,8.47,8.47,0,0,1-7.1,6.63c-.43.07-.87.06-1.31.09A.11.11,0,0,1,430.4,298.39ZM436,290v-.56a3.08,3.08,0,0,0-2-2.94,4,4,0,0,0-3.95.35,6.21,6.21,0,0,0-2.76,5.73,3.29,3.29,0,0,0,.78,2.17,3.52,3.52,0,0,0,3.95,1A5.84,5.84,0,0,0,436,290Z" transform="translate(-13.64 -74.05)"/><path class="cls-1" d="M266.7,298.06h-2.85c.83-4.75,1.65-9.41,2.48-14.1h2.86c-.05.45-.1.87-.16,1.44l.91-.58a6.49,6.49,0,0,1,5.4-.86,4,4,0,0,1,3,4,22.44,22.44,0,0,1-.36,3.25c-.33,2-.72,4.06-1.09,6.09-.14.75-.15.77-.89.78H274c.08-.6.13-1.12.22-1.63.38-2.15.79-4.31,1.16-6.46a6,6,0,0,0,.07-1.12,2.55,2.55,0,0,0-2.24-2.6,4,4,0,0,0-4.71,2.79,36.35,36.35,0,0,0-.79,3.76c-.28,1.47-.52,2.95-.78,4.43C266.85,297.54,266.77,297.77,266.7,298.06Z" transform="translate(-13.64 -74.05)"/><path class="cls-1" d="M300.74,298.06H298a5.58,5.58,0,0,1,.05-.84c.39-2.19.8-4.37,1.16-6.56a10.05,10.05,0,0,0,.14-2.05,2.27,2.27,0,0,0-1.59-2.12,4,4,0,0,0-5.29,2.56,27.31,27.31,0,0,0-.67,3.11c-.19,1-.36,2-.54,2.95S291,297,290.78,298h-2.9c.83-4.72,1.65-9.38,2.48-14.08h2.83c0,.43-.06.86-.09,1.41.26-.16.43-.25.59-.36a6.53,6.53,0,0,1,5.44-1.11,3.94,3.94,0,0,1,3.24,4,24.71,24.71,0,0,1-.39,3.63c-.3,1.92-.66,3.82-1,5.73C300.93,297.47,300.83,297.74,300.74,298.06Z" transform="translate(-13.64 -74.05)"/><path class="cls-1" d="M444.54,298.12c-1-4.79-1.92-9.44-2.87-14.16h3.09c.65,3.73,1.29,7.47,2,11.36a4.9,4.9,0,0,0,.43-.58q1.95-3.69,3.89-7.4c.49-.94,1-1.88,1.48-2.83a1,1,0,0,1,1-.61c.74.05,1.49,0,2.39,0-.55,1-1,1.91-1.52,2.8-1.95,3.5-3.92,7-5.85,10.5a1.41,1.41,0,0,1-1.52.92C446.26,298.06,445.44,298.12,444.54,298.12Z" transform="translate(-13.64 -74.05)"/><path class="cls-1" d="M217.5,295.89c-.14.79-.26,1.45-.39,2.17h-8.9c.44-3,1-5.92,1.52-8.86s1.06-5.9,1.59-8.88h2.88c-.46,2.62-.9,5.16-1.35,7.71l-1.36,7.72a5.31,5.31,0,0,0,2,.15c.66,0,1.32,0,2,0S216.75,295.89,217.5,295.89Z" transform="translate(-13.64 -74.05)"/><path class="cls-1" d="M423.36,279.14c-1.13,6.37-2.23,12.61-3.35,18.91h-2.86c.06-.44.1-.8.16-1.16q1.38-7.75,2.77-15.5c.1-.55.19-1.11.27-1.67,0-.3.13-.57.49-.58Z" transform="translate(-13.64 -74.05)"/><path class="cls-1" d="M494.33,298.07h-2.76a4.76,4.76,0,0,1,0-.85q.94-5.4,1.92-10.79c.41-2.27.81-4.55,1.22-6.82,0-.12.06-.23.11-.41h2.85C496.55,285.53,495.44,291.79,494.33,298.07Z" transform="translate(-13.64 -74.05)"/><path class="cls-1" d="M262.94,286.63c-.61.07-1.14.11-1.66.18a3.34,3.34,0,0,0-2.94,2.55c-.35,1.23-.55,2.5-.79,3.76-.31,1.63-.58,3.26-.88,4.94h-2.88c.78-4.72,1.64-9.37,2.46-14.08h2.86c-.09.69-.19,1.37-.31,2.26a6.94,6.94,0,0,1,3.22-2.31c.41-.1.84-.15,1.42-.26C263.25,284.74,263.1,285.65,262.94,286.63Z" transform="translate(-13.64 -74.05)"/><path class="cls-1" d="M280.9,298c.83-4.71,1.65-9.37,2.47-14.07h2.89L283.79,298Z" transform="translate(-13.64 -74.05)"/><path class="cls-1" d="M285.18,282c-1.15,0-1.74-.87-1.45-2.08a2.26,2.26,0,0,1,2.84-1.45,1.62,1.62,0,0,1,.85,1.45A2.22,2.22,0,0,1,285.18,282Z" transform="translate(-13.64 -74.05)"/></svg>